<svg width="90" height="36" viewBox="0 0 90 36" fill="none" xmlns="http://www.w3.org/2000/svg">
<path d="M5.752 17.76C5.728 17.76 5.728 17.76 5.728 17.76C3.808 16.992 3.04 16.272 3.04 15.216C3.04 14.4 4.024 13.68 5.296 13.68C8.272 13.68 8.896 16.08 8.992 16.416H10.528C10.288 14.952 8.944 12.96 5.392 12.96C2.224 12.96 1.696 14.976 1.72 15.936C1.744 17.592 3.616 18.312 5.44 18.96C5.584 19.008 5.704 19.056 5.824 19.104C8.152 19.992 8.944 20.664 8.968 21.792C8.992 22.8 8.32 23.424 6.568 23.472C4.312 23.544 3.4 21.912 2.968 20.904H1.336C1.696 22.296 3.136 24.216 6.544 24.12C9.832 24.048 10.408 22.056 10.384 21.096C10.336 19.2 7.84 18.528 5.752 17.76Z" fill="black"/>
<path d="M20.2969 13.44C20.2729 13.416 20.2489 13.392 20.2249 13.392C20.2249 13.368 20.2249 13.368 20.2009 13.368C19.4089 12.912 18.4729 12.648 17.4649 12.648C15.8329 12.648 14.3449 13.368 13.3369 14.496V12.576H11.8489V28.8H13.3369V21.864C13.6249 22.152 13.9129 22.44 14.2489 22.68C14.3449 22.752 14.4409 22.824 14.5609 22.872C14.6329 22.944 14.7049 22.968 14.7769 23.016C14.8969 23.088 15.0169 23.136 15.1369 23.184C15.8329 23.52 16.6249 23.712 17.4649 23.712C20.5129 23.712 23.0089 21.24 23.0089 18.192C23.0089 16.152 21.9049 14.4 20.2969 13.44ZM20.6809 20.04C20.0329 21.168 19.0729 22.032 17.9929 22.464C17.0809 22.824 16.1689 22.848 15.4009 22.536C15.2809 22.488 15.1609 22.416 15.0409 22.368C15.0169 22.344 14.9929 22.32 14.9689 22.296C13.2649 21.24 12.9289 18.576 14.2489 16.32C14.8969 15.192 15.8329 14.328 16.9369 13.896C17.4169 13.704 17.8969 13.608 18.3769 13.608C18.7609 13.608 19.1449 13.68 19.5289 13.824L19.7929 13.968C19.8409 13.968 19.8409 13.992 19.8889 13.992C19.9129 14.016 19.9369 14.04 19.9609 14.064C21.6649 15.12 22.0009 17.76 20.6809 20.04Z" fill="black"/>
<path d="M33.2702 12.888V14.976C32.8862 14.544 32.4542 14.184 31.9502 13.896C31.9502 13.872 31.9262 13.848 31.9022 13.848H31.8782C31.0862 13.392 30.1742 13.128 29.1902 13.128C26.2142 13.128 23.7902 15.552 23.7902 18.528C23.7902 20.352 24.6782 21.96 26.0462 22.92C26.1422 22.992 26.2382 23.064 26.3342 23.136C26.4302 23.184 26.5022 23.232 26.5742 23.28C26.6942 23.328 26.8142 23.4 26.9102 23.448C27.6062 23.76 28.3742 23.952 29.1902 23.952C30.8222 23.952 32.2622 23.232 33.2702 22.104V24H34.7103V12.888H33.2702ZM32.4302 20.352C31.8062 21.456 30.8702 22.32 29.8142 22.728C28.9022 23.088 27.9422 23.112 27.1742 22.8C27.0542 22.752 26.9582 22.68 26.8382 22.608C26.8142 22.608 26.7902 22.584 26.7662 22.584C25.0862 21.528 24.7502 18.936 26.0462 16.704C26.6702 15.6 27.6062 14.76 28.6622 14.328C29.1422 14.136 29.6222 14.064 30.0782 14.064C30.4622 14.064 30.9422 14.136 31.3022 14.28L31.5662 14.4C31.5902 14.424 31.6142 14.448 31.6382 14.448C31.6622 14.472 31.6862 14.472 31.7102 14.496C33.3902 15.552 33.7262 18.144 32.4302 20.352Z" fill="black"/>
<path d="M40.5372 13.272C40.5372 13.272 40.4892 13.296 40.4652 13.296C40.4652 13.296 40.4652 13.296 40.4652 13.32C39.5772 13.536 38.7372 13.992 38.0412 14.688C38.0172 14.712 37.9932 14.76 37.9692 14.784V12.912H36.5052V24H37.9692V18.6C38.1852 15.048 39.7692 14.352 39.7692 14.352C39.9372 14.256 40.1052 14.16 40.2732 14.088L40.5852 13.992C40.6092 13.968 40.6332 13.968 40.6572 13.968C40.6812 13.944 40.7052 13.944 40.7532 13.944C41.9292 13.656 43.1532 14.184 44.0892 15.192L45.0972 14.184C43.7772 13.176 42.0732 12.888 40.5372 13.272Z" fill="black"/>
<path d="M49.3345 17.088L51.4945 14.952C52.2385 14.208 53.2225 13.8 54.2785 13.8V13.2H50.8705V13.8H51.8065L47.4145 18.192V8.68799H45.9505V24H47.4145V20.232C47.4145 19.44 47.7265 18.696 48.2785 18.144L53.4145 24H55.5025L49.3345 17.088Z" fill="black"/>
<path d="M64.567 12.936L60.991 22.68L57.127 12.936H55.351L60.271 24.6L58.567 29.136H59.455L65.647 12.936H64.567Z" fill="black"/>
<path d="M84.4848 20.9081L78.7557 17.2263L82.0017 14.4225C82.3205 14.1469 82.2002 13.5967 81.8514 13.7349L77.7554 15.3584L80.7809 6.05336C80.9309 5.59191 80.4741 5.39855 80.2471 5.82742L75.6611 14.4981L73.9624 10.3955C73.8188 10.0489 73.34 10.3455 73.3641 10.7662L73.616 15.1405L67.4605 13.7017C67.1225 13.6228 66.8492 14.2686 67.1411 14.4563L72.461 17.875L69.1773 20.7112C68.8585 20.9867 68.9788 21.5369 69.3277 21.3988L73.4216 19.7759L70.3898 29.1009C70.2398 29.5623 70.6966 29.7557 70.9236 29.3268L75.5193 20.6376L77.2168 24.7377C77.3605 25.0843 77.8392 24.7877 77.8151 24.367L77.5707 20.12L84.1661 21.6619C84.504 21.7408 84.7774 21.095 84.4855 20.9073L84.4848 20.9081Z" fill="#FF7143"/>
</svg>
