<svg width="24" height="24" viewBox="0 0 24 24" fill="none" xmlns="http://www.w3.org/2000/svg">
<path d="M23.6398 11.8109L13.2898 1.46625L12.596 0.772501C12.438 0.615474 12.2242 0.527344 12.0014 0.527344C11.7786 0.527344 11.5648 0.615474 11.4067 0.772501L0.362996 11.8109C0.201026 11.9722 0.0730183 12.1644 -0.0134711 12.376C-0.0999605 12.5876 -0.143179 12.8144 -0.140575 13.043C-0.129861 13.9859 0.654961 14.7386 1.59782 14.7386H2.73621V23.4627H21.2666V14.7386H22.4291C22.8871 14.7386 23.3184 14.5591 23.6425 14.235C23.802 14.0759 23.9285 13.8868 24.0145 13.6785C24.1005 13.4702 24.1443 13.2469 24.1434 13.0216C24.1434 12.5663 23.9639 12.135 23.6398 11.8109ZM13.5014 21.5341H10.5014V16.0698H13.5014V21.5341ZM19.338 12.81V21.5341H15.2157V15.427C15.2157 14.835 14.7362 14.3555 14.1442 14.3555H9.85853C9.26657 14.3555 8.7871 14.835 8.7871 15.427V21.5341H4.66478V12.81H2.09335L12.0041 2.90732L12.6228 3.52607L21.9121 12.81H19.338Z" fill="black"/>
</svg>
